<svg xmlns="http://www.w3.org/2000/svg" viewBox="0 0 10.72 23.07"><defs><style>.cls-1{fill:#fff;fill-rule:evenodd;}</style></defs><title>facebook</title><g id="Layer_2" data-name="Layer 2"><g id="Layer_1-2" data-name="Layer 1"><path class="cls-1" d="M2.36,11.62V22.78a.29.29,0,0,0,.29.29H6.79a.29.29,0,0,0,.29-.29V11.44h3a.29.29,0,0,0,.29-.26l.28-3.42a.28.28,0,0,0-.29-.31H7.08V5a1,1,0,0,1,1-1h2.32a.29.29,0,0,0,.29-.29V.29A.29.29,0,0,0,10.43,0H6.52A4.15,4.15,0,0,0,2.36,4.15v3.3H.29A.29.29,0,0,0,0,7.74v3.41a.29.29,0,0,0,.29.29H2.36Z"/></g></g></svg>