<svg xmlns="http://www.w3.org/2000/svg" viewBox="0 0 24.13 24.13"><defs><style>.cls-1{fill:#fff;}</style></defs><title>instagram</title><g id="Layer_2" data-name="Layer 2"><g id="Layer_1-2" data-name="Layer 1"><circle class="cls-1" cx="18.45" cy="5.72" r="1.41"/><path class="cls-1" d="M12.16,6.12a5.95,5.95,0,1,0,5.94,5.94A6,6,0,0,0,12.16,6.12Zm0,9.75A3.81,3.81,0,1,1,16,12.06,3.81,3.81,0,0,1,12.16,15.87Z"/><path class="cls-1" d="M16.88,24.13H7.25A7.26,7.26,0,0,1,0,16.88V7.25A7.26,7.26,0,0,1,7.25,0h9.63a7.26,7.26,0,0,1,7.25,7.25v9.63A7.26,7.26,0,0,1,16.88,24.13ZM7.25,2.27a5,5,0,0,0-5,5v9.63a5,5,0,0,0,5,5h9.63a5,5,0,0,0,5-5V7.25a5,5,0,0,0-5-5Z"/></g></g></svg>