<svg id="Layer_1" data-name="Layer 1" xmlns="http://www.w3.org/2000/svg" viewBox="0 0 907.11 336.92"><defs><style>.cls-1{fill:#202945;}.cls-2{fill:#ff8e9f;}.cls-3{fill:#8c9091;}.cls-4{fill:#fff;}</style></defs><title>logoflip</title><path class="cls-1" d="M588.82,582.77c.63.08,1.25.14,1.84.18s1.53.06,2.8.06q9.54,0,12.93-6.26t3.4-28c0-2.39,0-6.63-.12-12.75s-.12-11.17-.12-15.14V488.49q0-6.54.12-20.56t.12-21.4q0-10.11-3.87-14.12t-13.53-4h-1.91v-8q24.67.6,40,.9t25.93.3q11.55,0,25-.3t30-.9q0,8.24.54,17.35t1.6,20.68l-8.22,1q-.82-15.14-8.46-20.38t-34.09-5.24q-9.29,0-29,.47H633q-.24,17.64-.71,39.28t-.6,24h3.93q6.68,0,16.57.12t13.47.12q17.52,0,23.18-3.22T695,482.65l7.51.48q-1,8.94-1.31,14.72t-.36,10.67q0,3.57.18,8.46t.54,11l-7.87.6v-2q0-9.76-5.84-13.28t-27.06-3.52H631.72v46.36q0,17.16,3.81,21.63t15.5,4.47h4.65v8.35q-9.06-.48-17.82-.72c-5.84-.15-11.54-.24-17.1-.24-2.78,0-7,.09-12.7.24s-12.1.4-19.24.72Z" transform="translate(-46.78 -331.08)"/><path class="cls-1" d="M355.5,483.16c-36.92,4.21-42.64-36.84-42.64-36.84C309.43,435,301.41,432,301.41,432a26.15,26.15,0,0,1-9.54-5c-4.76-5.23,1.12-8.68,1.12-8.68,32.62-18.34,62.08,1.73,62.08,1.73l8,6.51A78.88,78.88,0,0,0,405,443.74l24.19,2.39S396.65,478.11,355.5,483.16Z" transform="translate(-46.78 -331.08)"/><path class="cls-1" d="M350.4,495.56c-16.94,0-31.1-8-40.35-22.86a70,70,0,0,1-9-23.53,11.17,11.17,0,0,0-4.13-5.92A38,38,0,0,1,283.8,436a12.18,12.18,0,0,1-.88-.88,17.65,17.65,0,0,1-4.83-14.62,18.36,18.36,0,0,1,8.76-12.63l.21-.12c38.72-21.77,73.37,1.29,74.82,2.28a9.53,9.53,0,0,1,.81.61l8,6.51a66.65,66.65,0,0,0,35.5,14.6l24.19,2.39a12.1,12.1,0,0,1,7.28,20.68c-1.45,1.42-36,34.92-80.72,40.4h-.1A57.35,57.35,0,0,1,350.4,495.56Zm5.1-12.4h0Zm-44.11-59.29a35.75,35.75,0,0,1,13.05,18.93,12,12,0,0,1,.41,1.85,45.58,45.58,0,0,0,6.09,15.79c5.46,8.46,12.81,11.86,23.14,10.7,16.5-2,31.69-9.09,43.38-16.21a90.77,90.77,0,0,1-42-19l-7.52-6.11C345.49,428.26,330.18,419.4,311.39,423.87Z" transform="translate(-46.78 -331.08)"/><path class="cls-1" d="M561.94,483.16c36.92,4.21,42.63-36.84,42.63-36.84C608,435,616,432,616,432a26,26,0,0,0,9.53-5c4.76-5.23-1.11-8.68-1.11-8.68-32.63-18.34-62.08,1.73-62.08,1.73l-8,6.51a78.87,78.87,0,0,1-41.94,17.25l-24.19,2.39S520.78,478.11,561.94,483.16Z" transform="translate(-46.78 -331.08)"/><path class="cls-1" d="M567,495.56a57.39,57.39,0,0,1-6.48-.38h-.1c-44.71-5.48-79.27-39-80.72-40.4A12.11,12.11,0,0,1,487,434.09l24.19-2.39a66.65,66.65,0,0,0,35.5-14.6l8-6.51a9.53,9.53,0,0,1,.81-.61c1.46-1,36.1-24.05,74.83-2.28l.2.11a18.37,18.37,0,0,1,8.76,12.64,17.61,17.61,0,0,1-4.83,14.62,12,12,0,0,1-.87.88,38,38,0,0,1-13.13,7.3,11.22,11.22,0,0,0-4.14,5.92,69.58,69.58,0,0,1-9,23.53C598.14,487.6,584,495.56,567,495.56Zm-3.68-24.42c10.32,1.17,17.68-2.24,23.14-10.7a45.84,45.84,0,0,0,6.1-15.85,10.06,10.06,0,0,1,.4-1.79,35.8,35.8,0,0,1,13-18.93c-18.68-4.45-33.94,4.3-36.56,5.93L562,435.89a90.68,90.68,0,0,1-42,19C531.67,462.05,546.85,469.1,563.36,471.14Z" transform="translate(-46.78 -331.08)"/><path class="cls-2" d="M575.51,511q0-54-33.6-88.59t-84.66-34.6q-49,0-78.73,29.68t-29.67,79.41q0,55.29,33.7,90.72T466.88,623q48.83,0,78.73-30.52T575.51,511Z" transform="translate(-46.78 -331.08)"/><path class="cls-1" d="M462.18,381.44q28,0,50,7.23A118.81,118.81,0,0,1,552.13,411a126.05,126.05,0,0,1,32.71,42.37,120.36,120.36,0,0,1-.64,103.35,123,123,0,0,1-34.09,42.37,134.18,134.18,0,0,1-41.2,22.35,144.54,144.54,0,0,1-47.1,8.06q-29.49,0-54.28-9.8a125.86,125.86,0,0,1-43.78-29.08,123.77,123.77,0,0,1-26.45-39.55,119,119,0,0,1-9.13-46.19,115.28,115.28,0,0,1,11-49.6,120.32,120.32,0,0,1,31.8-41,135.84,135.84,0,0,1,42.39-24.42A143.18,143.18,0,0,1,462.18,381.44Zm99.66,129.28q0-51.68-29.55-84.78t-74.44-33.11q-43.14,0-69.23,28.4t-26.1,76q0,52.92,29.64,86.82T466.31,618q42.94,0,69.23-29.2T561.84,510.72Z" transform="translate(-46.78 -331.08)"/><path class="cls-2" d="M355.5,483.16c-36.92,4.21-42.64-36.84-42.64-36.84C309.43,435,301.41,432,301.41,432a26.15,26.15,0,0,1-9.54-5c-4.76-5.23,1.12-8.68,1.12-8.68,32.62-18.34,62.08,1.73,62.08,1.73l8,6.51A78.88,78.88,0,0,0,405,443.74l24.19,2.39S396.65,478.11,355.5,483.16Z" transform="translate(-46.78 -331.08)"/><path class="cls-2" d="M561.94,483.16c36.92,4.21,42.63-36.84,42.63-36.84C608,435,616,432,616,432a26,26,0,0,0,9.53-5c4.76-5.23-1.11-8.68-1.11-8.68-32.63-18.34-62.08,1.73-62.08,1.73l-8,6.51a78.87,78.87,0,0,1-41.94,17.25l-24.19,2.39S520.78,478.11,561.94,483.16Z" transform="translate(-46.78 -331.08)"/><path class="cls-1" d="M46.78,582.77c.64.08,1.25.14,1.85.18s1.53.06,2.8.06q9.54,0,12.93-6.5t3.4-28.9q0-3.35-.12-12.28t-.12-14.42V446.3c0-6.84-1.23-11.52-3.69-14.07s-6.95-3.81-13.47-3.81h-1v-8.34q8.12.6,16.16.83t15.9.24q8.83,0,21-.54t15.8-.53q26.1,0,41.71,13t15.62,34.21q0,25.14-17.11,39.15t-48.32,14q-3.11,0-8.41-.35c-3.53-.24-7.73-.6-12.57-1.08v35.88q0,18.36,3.76,23.06t15.07,4.71a10.88,10.88,0,0,0,1.25-.12,11,11,0,0,1,1.37-.12,5.12,5.12,0,0,1,.9.06,2.21,2.21,0,0,1,.53.18l.11,7.87q-8.68-.48-17.51-.72c-5.88-.15-11.68-.24-17.4-.24-2.79,0-6.85.09-12.22.24s-11.47.4-18.3.72ZM89.22,508c3.34.48,6.35.83,9,1.07s5.37.36,8,.36q22.39,0,34-10t11.62-29.15q0-17.26-11.45-27.53t-31-10.25c-3.57,0-7,.14-10.18.42s-6.38.7-9.48,1.25q-.34,16.1-.47,32.48T89.22,508Z" transform="translate(-46.78 -331.08)"/><path class="cls-1" d="M191.34,582.77c.55.08,1.09.14,1.61.18s1.29.06,2.32.06q15.85,0,16.09-44.58c.08-7.47.16-13.3.24-17.52l.47-32.54q.12-10.49.19-20.38c0-6.6.06-13.74.06-21.46q0-10.25-3.82-14.18c-2.54-2.62-7.08-3.93-13.59-3.93H194v-8.34q8,.6,15.79.83t15.2.24q8,0,19.84-.54t15.79-.53q24.44,0,40.05,12.87t15.62,32.3a44,44,0,0,1-7.81,25.68Q300.63,502.2,285,510.18l22.29,33.73c.79,1.28,2,3.1,3.57,5.49q23.13,35.28,37.9,35.28H350v6.79c-1.11.08-2.79.24-5,.48q-7.75.7-11.32.71-12.64,0-20-3.39T299.2,576.1Q298,574.54,286,554.88t-24.14-37.07c-3,.32-6.23.56-9.65.72s-7.19.24-11.32.24h-7.15v36.58q0,17.89,3.69,22.59t14.66,4.71a5,5,0,0,0,.95-.12,5.16,5.16,0,0,1,1-.12,2.17,2.17,0,0,1,.78.12,1.27,1.27,0,0,0,.41.12v7.87q-8.46-.48-16.8-.72c-5.57-.15-11.09-.24-16.57-.24-2.94,0-7.07.09-12.4.24s-11.36.4-18.11.72Zm42.43-76.28c3.81.4,7.4.67,10.79.83s6.37.24,9,.24q3.34,0,7.63-.18c2.86-.12,6-.33,9.3-.65q11.44-6.92,16.8-16t5.37-21.76q0-16.56-10.73-26.58t-28.85-10q-4.87,0-9.53.42T234.36,434q-.35,14.79-.48,30.39T233.77,506.49Z" transform="translate(-46.78 -331.08)"/><path class="cls-1" d="M724.33,420.43c5.56.33,11.09.56,16.57.72s10.85.24,16.09.24q6.68,0,14.9-.24t17.4-.72v8.11h-2q-7.75,0-11.62,1.79a10.16,10.16,0,0,0-5.43,6,37.4,37.4,0,0,0-1.37,8.89q-.42,6.15-.42,20V548.3q0,14.07.66,19.8a25.45,25.45,0,0,0,2.08,8.47,9,9,0,0,0,5.54,4.29A37.62,37.62,0,0,0,788,582.17h2.5v8.35q-10.25-.48-19-.72c-5.8-.15-10.65-.24-14.54-.24-4.61,0-9.81.09-15.61.24s-11.88.4-18.24.72v-8.35h2.38q7.4,0,11.33-1.31a9,9,0,0,0,5.48-4.29q1.67-3.23,2.32-10.56t.66-26.54V474q0-18.72-.48-26.65t-1.55-11a9.8,9.8,0,0,0-5.18-6q-3.76-1.79-11.62-1.79h-2.15Z" transform="translate(-46.78 -331.08)"/><path class="cls-1" d="M845.31,582.17h4.17q8.46,0,12-2.08c2.39-1.39,4.05-4,5-7.69q1.07-3.69,1.49-26.82t.41-72v-38H844.36q-17.52,0-23.66,4.71t-9.12,19.84l-7.74-1.66q2.25-10.38,3.45-20.38a167.35,167.35,0,0,0,1.19-19.67c2.39,1.51,7.21,2.58,14.49,3.22s20,.95,38.19.95h29.08q36.24,0,46.66-.89t14.61-3.28q0,1.18-.12,3.75c-.08,1.72-.12,3-.12,3.87q0,7.52.65,15.5t2,16.45l-7.51,1.43q-1.43-13.47-7.33-18.36t-24.85-5.48H891.67c-.07,4.53-.16,10.93-.23,19.19q-.24,32.53-.24,43.74,0,42.32.53,57.33t1.85,18.71a9.86,9.86,0,0,0,5.13,6q3.57,1.68,11,1.67h4.17v8.35q-9.89-.48-18.65-.72c-5.84-.15-11.06-.24-15.67-.24-4,0-9,.09-15,.24s-12.34.4-19.25.72Z" transform="translate(-46.78 -331.08)"/><path class="cls-3" d="M433.17,427.09h51.24a44.45,44.45,0,1,0-51.24,0Z" transform="translate(-46.78 -331.08)"/><path class="cls-1" d="M484.41,432.71H433.17a5.6,5.6,0,0,1-3.24-1,50.07,50.07,0,1,1,57.73,0A5.63,5.63,0,0,1,484.41,432.71ZM435,421.48h47.54a38.84,38.84,0,1,0-47.54,0Z" transform="translate(-46.78 -331.08)"/><path class="cls-1" d="M504.88,433.92H412.27a6.83,6.83,0,0,1,0-13.65h92.61a6.83,6.83,0,1,1,0,13.65Z" transform="translate(-46.78 -331.08)"/><path class="cls-1" d="M580.12,460.28s-31.1-5.4-53.83-5.4c-32.52,0-51.36,6.49-64.32,6.49s-31.8-6.49-64.32-6.49c-22.73,0-53.83,5.4-53.83,5.4a1.75,1.75,0,0,0-1.41,1.89s1.41,12.39,1.57,13.33a1.56,1.56,0,0,0,1.35,1.27c15.34,2.84-1.72,61.32,53.86,61.32,57.64,0,43.84-58.18,62.78-58.18s5.14,58.18,62.78,58.18c55.58,0,38.52-58.48,53.87-61.32A1.55,1.55,0,0,0,580,475.5c.16-.94,1.57-13.33,1.57-13.33A1.75,1.75,0,0,0,580.12,460.28ZM399.91,529c-11.06,0-18.48-2.32-24.05-7.5-7.54-7-11.21-19.18-11.21-37.15,0-7.73,2.42-12.78,7.61-15.89s13.37-4.53,25.82-4.53c38.14,0,43.28,7.62,43.28,15.06C441.36,497.67,436,529,399.91,529Zm148.18-7.51c-5.58,5.19-13,7.5-24.06,7.5-36.07,0-41.46-31.32-41.46-50,0-7.45,5.14-15.06,43.29-15.06,12.46,0,20.67,1.44,25.83,4.53s7.61,8.15,7.61,15.88C559.3,502.32,555.63,514.47,548.09,521.49Z" transform="translate(-46.78 -331.08)"/><path class="cls-1" d="M463.8,597.58c-28.38,0-54-16-66.89-41.78a4.9,4.9,0,1,1,8.77-4.39c11.21,22.43,33.48,36.36,58.12,36.36s46.9-13.93,58.11-36.36a4.91,4.91,0,0,1,8.78,4.39C517.8,581.57,492.17,597.58,463.8,597.58Z" transform="translate(-46.78 -331.08)"/><path class="cls-3" d="M473.46,584.65a28.77,28.77,0,1,1-28.77,28.77,28.85,28.85,0,0,0-12.79-23.86S445.2,584.65,473.46,584.65Z" transform="translate(-46.78 -331.08)"/><path class="cls-1" d="M473.46,647.81a34.42,34.42,0,0,1-34.38-34.39,23.23,23.23,0,0,0-10.32-19.21l-9.07-6.12L430,584.3c.58-.22,14.58-5.26,43.51-5.26a34.39,34.39,0,1,1,0,68.77Zm-30.24-55.19a34.12,34.12,0,0,1,7.08,20.8,23.16,23.16,0,1,0,23.16-23.16A173.62,173.62,0,0,0,443.22,592.62Z" transform="translate(-46.78 -331.08)"/><path class="cls-1" d="M474.56,618.51a5.09,5.09,0,0,1-5.09-5.09,23.7,23.7,0,0,0-23.68-23.68,5.09,5.09,0,0,1,0-10.18,33.9,33.9,0,0,1,33.86,33.86A5.09,5.09,0,0,1,474.56,618.51Z" transform="translate(-46.78 -331.08)"/><path class="cls-2" d="M399.91,529c-11.06,0-18.48-2.32-24.05-7.5-7.54-7-11.21-19.18-11.21-37.15,0-7.73,2.42-12.78,7.61-15.89s13.37-4.53,25.82-4.53c38.14,0,43.28,7.62,43.28,15.06C441.36,497.67,436,529,399.91,529Z" transform="translate(-46.78 -331.08)"/><path class="cls-2" d="M548.09,521.49c-5.58,5.19-13,7.5-24.06,7.5-36.07,0-41.46-31.32-41.46-50,0-7.45,5.14-15.06,43.29-15.06,12.46,0,20.67,1.44,25.83,4.53s7.61,8.15,7.61,15.88C559.3,502.32,555.63,514.47,548.09,521.49Z" transform="translate(-46.78 -331.08)"/><path class="cls-4" d="M458.2,359.82h3.38l-.06,7.6a17.09,17.09,0,0,1,7,1.39c1.69.83,2.54,1.92,2.54,3.26a2.89,2.89,0,0,1-.77,2,2.37,2.37,0,0,1-1.83.85c-.52,0-1.44-.74-2.75-2.23a6.1,6.1,0,0,0-4.2-2.35l-.23,13.09q6,2.08,8.41,4.6a8.85,8.85,0,0,1,2.44,6.44,10.3,10.3,0,0,1-3,7.43,13.19,13.19,0,0,1-7.88,3.75v7.6h-3.38l.13-7.47a18.12,18.12,0,0,1-7.65-1.54q-2.75-1.42-2.75-3.79a3.19,3.19,0,0,1,.82-2.19,2.4,2.4,0,0,1,1.85-.93c.73,0,1.78.94,3.13,2.8a5.82,5.82,0,0,0,4.73,2.79l.13-14.55q-5.49-1.81-8-4.36a8.42,8.42,0,0,1-2.55-6.23,9,9,0,0,1,2.89-6.76,13.13,13.13,0,0,1,7.7-3.41Zm.13,10.53a7,7,0,0,0-4.14,1.95,5.41,5.41,0,0,0-1.51,3.9,5.16,5.16,0,0,0,1.35,3.57,11.35,11.35,0,0,0,4.3,2.66Zm2.86,18.87V402.8a7,7,0,0,0,4.34-2.47,7.17,7.17,0,0,0,1.64-4.71,5.2,5.2,0,0,0-1.43-3.65A12,12,0,0,0,461.19,389.22Z" transform="translate(-46.78 -331.08)"/><path class="cls-4" d="M461.26,414h-3.38a.67.67,0,0,1-.5-.21.66.66,0,0,1-.2-.5l.12-6.78a18,18,0,0,1-7.26-1.6c-2.08-1.07-3.13-2.55-3.13-4.41a3.88,3.88,0,0,1,1-2.65,3.09,3.09,0,0,1,2.38-1.17c1,0,2.15.95,3.7,3.09a5.44,5.44,0,0,0,3.46,2.44l.12-13.29a20.53,20.53,0,0,1-7.82-4.36,9.14,9.14,0,0,1-2.76-6.73,9.74,9.74,0,0,1,3.1-7.26,13.65,13.65,0,0,1,7.48-3.52l-.06-7.18a.67.67,0,0,1,.21-.5.71.71,0,0,1,.49-.21h3.38a.71.71,0,0,1,.5.21.66.66,0,0,1,.2.5l0,6.92a17,17,0,0,1,6.58,1.43c1.94.95,2.93,2.26,2.93,3.89a3.58,3.58,0,0,1-.95,2.48,3,3,0,0,1-2.35,1.08c-.54,0-1.36-.29-3.27-2.46a6,6,0,0,0-3-2L462,383c3.87,1.39,6.56,2.89,8.21,4.6a9.62,9.62,0,0,1,2.63,6.93,11,11,0,0,1-3.17,7.92,13.63,13.63,0,0,1-7.68,3.86v7A.7.7,0,0,1,461.26,414Zm-2.67-1.4h2v-6.9a.68.68,0,0,1,.6-.69,12.53,12.53,0,0,0,7.47-3.55,9.53,9.53,0,0,0,2.78-6.94,8.18,8.18,0,0,0-2.24-6c-1.54-1.59-4.28-3.07-8.14-4.42a.69.69,0,0,1-.47-.67l.22-13.09a.74.74,0,0,1,.23-.51.68.68,0,0,1,.52-.18,6.83,6.83,0,0,1,4.69,2.59c1.64,1.86,2.17,2,2.23,2a1.66,1.66,0,0,0,1.3-.62,2.2,2.2,0,0,0,.58-1.54c0-1.06-.7-1.92-2.14-2.64a16.63,16.63,0,0,0-6.69-1.3.71.71,0,0,1-.68-.71l.06-6.9h-2l.06,7.09a.69.69,0,0,1-.61.7,12.52,12.52,0,0,0-7.3,3.23,8.29,8.29,0,0,0-2.68,6.25,7.75,7.75,0,0,0,2.34,5.74,20.07,20.07,0,0,0,7.77,4.18.71.71,0,0,1,.48.67l-.13,14.56a.7.7,0,0,1-.7.69,6.46,6.46,0,0,1-5.29-3.08c-1.74-2.38-2.45-2.5-2.57-2.5a1.74,1.74,0,0,0-1.33.68,2.51,2.51,0,0,0-.63,1.73c0,1.31.77,2.34,2.36,3.16a17.4,17.4,0,0,0,7.35,1.47.7.7,0,0,1,.68.71Zm2.6-9.06a.69.69,0,0,1-.7-.7V389.22a.71.71,0,0,1,.31-.58.68.68,0,0,1,.65-.07,12.83,12.83,0,0,1,4.81,2.92,5.91,5.91,0,0,1,1.61,4.13,7.84,7.84,0,0,1-1.8,5.16,7.76,7.76,0,0,1-4.75,2.71Zm.71-13.23v11.65a6.13,6.13,0,0,0,3.09-2,6.42,6.42,0,0,0,1.48-4.26,4.53,4.53,0,0,0-1.24-3.18A10.31,10.31,0,0,0,461.9,390.27Zm-3.57-7.14a.56.56,0,0,1-.25-.05,12,12,0,0,1-4.57-2.84,5.86,5.86,0,0,1-1.53-4,6.09,6.09,0,0,1,1.71-4.39,7.74,7.74,0,0,1,4.54-2.16.72.72,0,0,1,.81.7v12.08a.7.7,0,0,1-.31.58A.72.72,0,0,1,458.33,383.13Zm-.7-11.93a5.8,5.8,0,0,0-2.93,1.59,4.63,4.63,0,0,0-1.32,3.41,4.47,4.47,0,0,0,1.17,3.1,9.52,9.52,0,0,0,3.08,2.07Z" transform="translate(-46.78 -331.08)"/><path class="cls-2" d="M715.33,642.57h17.2v11.16a23,23,0,0,1-14.37,4.65c-6.27,0-11.12-2-14.84-6s-5.58-9.2-5.58-15.64a21.67,21.67,0,0,1,5.6-15.17,17.77,17.77,0,0,1,13.93-6.14,23.37,23.37,0,0,1,15.93,6l1.48,1.29,6.66-7.83-1.5-1.26a31.84,31.84,0,0,0-22.32-8c-8.82,0-16.16,3.12-21.82,9.27a31.45,31.45,0,0,0-8.46,22c0,8.82,2.82,16.28,8.4,22.17s13.1,8.92,22.28,8.92a35,35,0,0,0,24-9.13l.65-.58V633H715.33Z" transform="translate(-46.78 -331.08)"/><path class="cls-2" d="M781.09,606.22,753.58,667h10.81l6.7-14.94h28.24L806,667h11.14l-27.51-60.81Zm14,36.26H775.34l9.91-22.12Z" transform="translate(-46.78 -331.08)"/><polygon class="cls-2" points="811.94 304.83 792.39 275.55 782.95 275.55 782.95 335.95 793.05 335.95 793.05 294.61 810.67 320.45 813.05 320.45 830.66 294.54 830.66 335.95 840.93 335.95 840.93 275.55 831.49 275.55 811.94 304.83"/><polygon class="cls-2" points="869.75 326.25 869.75 310.36 900.59 310.36 900.59 300.66 869.75 300.66 869.75 285.25 904.23 285.25 904.23 275.55 859.49 275.55 859.49 335.95 904.63 335.95 904.63 326.25 869.75 326.25"/><polygon class="cls-2" points="14.27 42.17 45.11 42.17 45.11 32.47 14.27 32.47 14.27 17.06 48.74 17.06 48.74 7.36 4 7.36 4 67.76 49.15 67.76 49.15 58.06 14.27 58.06 14.27 42.17"/><path class="cls-2" d="M132.94,338l-27.51,60.81h10.81l6.7-14.94h28.24l6.62,14.94h11.13L141.42,338Zm14,36.26H127.18l9.92-22.12Z" transform="translate(-46.78 -331.08)"/><path class="cls-2" d="M219.06,370c-3.21-2.74-8.07-4.79-14.86-6.28-7.06-1.52-10.09-3-11.39-4a6,6,0,0,1-2.42-5.15,6.17,6.17,0,0,1,2.58-5.06,11.82,11.82,0,0,1,7.51-2.2,23.49,23.49,0,0,1,15.08,5.7l1.56,1.27,6.07-8L221.72,345a32.68,32.68,0,0,0-15.41-6.92v-7H196.05V338a20.6,20.6,0,0,0-10,4.43,15.76,15.76,0,0,0-6,12.63c0,5.17,1.75,9.22,5.19,12,3.26,2.68,8.26,4.72,15.33,6.26,6.7,1.39,9.58,2.84,10.82,3.82a6.09,6.09,0,0,1,2.33,5.09,6.59,6.59,0,0,1-2.73,5.46,12.63,12.63,0,0,1-7.93,2.29,24.31,24.31,0,0,1-9.53-1.78,30.53,30.53,0,0,1-8.53-5.71l-1.5-1.36-6.47,7.67,1.4,1.26A36.19,36.19,0,0,0,196.05,399v7.2h10.26v-6.75a22,22,0,0,0,11.7-4.64,16.2,16.2,0,0,0,6.13-13.17A14.63,14.63,0,0,0,219.06,370Z" transform="translate(-46.78 -331.08)"/><polygon class="cls-2" points="215.87 34.09 197.84 7.36 185.36 7.36 210.61 44.06 210.61 67.76 220.95 67.76 220.95 43.98 246.21 7.36 234.05 7.36 215.87 34.09"/><circle class="cls-4" cx="356.64" cy="164.54" r="21.52"/><path class="cls-1" d="M403.43,520.18A24.56,24.56,0,1,1,428,495.62,24.58,24.58,0,0,1,403.43,520.18Zm0-43a18.49,18.49,0,1,0,18.48,18.49A18.51,18.51,0,0,0,403.43,477.13Z" transform="translate(-46.78 -331.08)"/><circle class="cls-1" cx="355" cy="151.42" r="10.37"/><circle class="cls-4" cx="474.32" cy="164.54" r="21.52"/><path class="cls-1" d="M521.09,520.19a24.62,24.62,0,0,1-23.17-16.49h0a24.51,24.51,0,1,1,23.17,16.49Zm0-43.06a18.49,18.49,0,0,0-17.44,24.57h0a18.49,18.49,0,1,0,17.44-24.57Z" transform="translate(-46.78 -331.08)"/><circle class="cls-1" cx="475.44" cy="151.01" r="10.59"/><rect class="cls-2" x="413.51" y="493.49" width="98.43" height="98.43" rx="2.89" ry="2.89" transform="translate(-105.38 -275.06) rotate(-6.52)"/><path class="cls-1" d="M421.94,602.18a8.19,8.19,0,0,1-8.12-7.26l-10.51-92a8.19,8.19,0,0,1,7.2-9.06l92.05-10.52a8.2,8.2,0,0,1,9.06,7.21l10.52,92a8.2,8.2,0,0,1-7.2,9.06l-92.06,10.51A7.42,7.42,0,0,1,421.94,602.18Zm-7.84-98.13,10,87.28,87.28-10-10-87.28Z" transform="translate(-46.78 -331.08)"/><circle class="cls-1" cx="396.75" cy="213.46" r="10.69"/><circle class="cls-1" cx="433.63" cy="209.23" r="10.69"/></svg>