<svg xmlns="http://www.w3.org/2000/svg" viewBox="0 0 100.34 85.2"><defs><style>.cls-1{fill:#202945;}.cls-2{fill:#ff8e9f;}.cls-3{fill:#8c9091;}.cls-4{fill:#fff;}</style></defs><title>logo</title><g id="Layer_2" data-name="Layer 2"><g id="Layer_1-2" data-name="Layer 1"><path class="cls-1" d="M21.53,39.52C11.28,40.68,9.7,29.29,9.7,29.29a6,6,0,0,0-3.18-4,7.34,7.34,0,0,1-2.65-1.4,1.47,1.47,0,0,1,.31-2.41c9.06-5.08,17.23.49,17.23.49l2.23,1.8a21.85,21.85,0,0,0,11.63,4.79l6.71.66S33,38.11,21.53,39.52Z"/><path class="cls-1" d="M20.11,43A12.72,12.72,0,0,1,8.92,36.61a19.55,19.55,0,0,1-2.5-6.52,3.15,3.15,0,0,0-1.14-1.65,10.65,10.65,0,0,1-3.65-2l-.24-.25A4.87,4.87,0,0,1,.05,22.11a5.09,5.09,0,0,1,2.43-3.5l.06,0c10.74-6,20.36.36,20.76.63l.23.17,2.22,1.81a18.52,18.52,0,0,0,9.85,4l6.71.66a3.36,3.36,0,0,1,2,5.74c-.41.39-10,9.69-22.4,11.21h0A15.8,15.8,0,0,1,20.11,43Zm1.42-3.44ZM9.29,23.06a10,10,0,0,1,3.62,5.26,3.1,3.1,0,0,1,.11.51,12.84,12.84,0,0,0,1.69,4.38,6.15,6.15,0,0,0,6.42,3,30.89,30.89,0,0,0,12-4.5A25.12,25.12,0,0,1,21.52,26.4l-2.09-1.69A14,14,0,0,0,9.29,23.06Z"/><path class="cls-1" d="M78.81,39.52c10.24,1.16,11.83-10.23,11.83-10.23a6,6,0,0,1,3.18-4,7.34,7.34,0,0,0,2.65-1.4,1.47,1.47,0,0,0-.31-2.41C87.1,16.42,78.93,22,78.93,22l-2.23,1.8a21.85,21.85,0,0,1-11.63,4.79l-6.71.66S67.39,38.11,78.81,39.52Z"/><path class="cls-1" d="M80.23,43a15.8,15.8,0,0,1-1.8-.11h0C66,41.33,56.41,32,56,31.64a3.36,3.36,0,0,1,2-5.74l6.71-.66a18.52,18.52,0,0,0,9.85-4l2.22-1.81.23-.17c.4-.27,10-6.67,20.76-.63l.06,0a5.09,5.09,0,0,1,2.43,3.5A4.91,4.91,0,0,1,99,26.17a3,3,0,0,1-.25.25,10.45,10.45,0,0,1-3.64,2,3.15,3.15,0,0,0-1.15,1.65,19.23,19.23,0,0,1-2.49,6.52A12.74,12.74,0,0,1,80.23,43Zm-1-6.78a6.15,6.15,0,0,0,6.43-3,13,13,0,0,0,1.69-4.4,2.88,2.88,0,0,1,.11-.49,9.94,9.94,0,0,1,3.62-5.26A14,14,0,0,0,80.9,24.71L78.82,26.4a25.17,25.17,0,0,1-11.65,5.28A30.84,30.84,0,0,0,79.2,36.18Z"/><path class="cls-2" d="M82.58,47.23q0-15-9.33-24.58t-23.49-9.6q-13.6,0-21.84,8.23t-8.24,22q0,15.33,9.36,25.17a30.91,30.91,0,0,0,23.39,9.83q13.56,0,21.85-8.47T82.58,47.23Z"/><path class="cls-1" d="M51.13,11.29A44.43,44.43,0,0,1,65,13.3a32.75,32.75,0,0,1,11.07,6.2,35.09,35.09,0,0,1,9.08,11.75,33.1,33.1,0,0,1,3.14,14.21A32.69,32.69,0,0,1,85,59.93a34.21,34.21,0,0,1-9.46,11.76,37.44,37.44,0,0,1-11.43,6.2A41.13,41.13,0,0,1,36,77.4a34.86,34.86,0,0,1-12.15-8.06,34.35,34.35,0,0,1-7.34-11A32.93,32.93,0,0,1,14,45.55a32,32,0,0,1,3-13.77,33.51,33.51,0,0,1,8.82-11.36,37.81,37.81,0,0,1,11.77-6.78A39.7,39.7,0,0,1,51.13,11.29ZM78.78,47.16q0-14.32-8.2-23.52a26.48,26.48,0,0,0-20.65-9.19q-12,0-19.21,7.88T23.48,43.42q0,14.69,8.22,24.09a26.2,26.2,0,0,0,20.58,9.41q11.91,0,19.21-8.11T78.78,47.16Z"/><path class="cls-2" d="M21.53,39.52C11.28,40.68,9.7,29.29,9.7,29.29a6,6,0,0,0-3.18-4,7.34,7.34,0,0,1-2.65-1.4,1.47,1.47,0,0,1,.31-2.41c9.06-5.08,17.23.49,17.23.49l2.23,1.8a21.85,21.85,0,0,0,11.63,4.79l6.71.66S33,38.11,21.53,39.52Z"/><path class="cls-2" d="M78.81,39.52c10.24,1.16,11.83-10.23,11.83-10.23a6,6,0,0,1,3.18-4,7.34,7.34,0,0,0,2.65-1.4,1.47,1.47,0,0,0-.31-2.41C87.1,16.42,78.93,22,78.93,22l-2.23,1.8a21.85,21.85,0,0,1-11.63,4.79l-6.71.66S67.39,38.11,78.81,39.52Z"/><path class="cls-3" d="M43.08,24H57.3a12.33,12.33,0,1,0-14.22,0Z"/><path class="cls-1" d="M57.3,25.52H43.08a1.53,1.53,0,0,1-.9-.29,13.89,13.89,0,1,1,16,0A1.53,1.53,0,0,1,57.3,25.52ZM43.59,22.4h13.2a10.78,10.78,0,1,0-13.2,0Z"/><path class="cls-1" d="M63,25.85H37.28a1.89,1.89,0,0,1,0-3.78H63a1.89,1.89,0,1,1,0,3.78Z"/><path class="cls-1" d="M83.86,33.17a107.64,107.64,0,0,0-14.94-1.5c-9,0-14.25,1.8-17.85,1.8s-8.82-1.8-17.84-1.8a107.64,107.64,0,0,0-14.94,1.5.47.47,0,0,0-.39.52s.39,3.44.43,3.7a.44.44,0,0,0,.38.35c4.26.79-.48,17,14.94,17,16,0,12.17-16.15,17.42-16.15S52.5,54.76,68.49,54.76c15.42,0,10.69-16.23,15-17a.43.43,0,0,0,.37-.35c0-.26.44-3.7.44-3.7A.48.48,0,0,0,83.86,33.17Zm-50,19.06c-3.07,0-5.13-.64-6.67-2.08-2.09-1.95-3.11-5.32-3.11-10.3,0-2.15.67-3.55,2.11-4.41s3.71-1.26,7.17-1.26c10.58,0,12,2.11,12,4.18C45.35,43.54,43.86,52.23,33.85,52.23ZM75,50.15c-1.55,1.44-3.61,2.08-6.68,2.08-10,0-11.5-8.69-11.5-13.87,0-2.07,1.43-4.18,12-4.18,3.46,0,5.73.4,7.17,1.26s2.11,2.26,2.11,4.41C78.08,44.83,77.06,48.2,75,50.15Z"/><path class="cls-1" d="M51.58,71.27A20.69,20.69,0,0,1,33,59.67a1.36,1.36,0,1,1,2.43-1.22,17.93,17.93,0,0,0,32.25,0,1.36,1.36,0,0,1,2.44,1.22A20.72,20.72,0,0,1,51.58,71.27Z"/><path class="cls-3" d="M54.26,67.68a8,8,0,1,1-8,8A8,8,0,0,0,42.73,69S46.42,67.68,54.26,67.68Z"/><path class="cls-1" d="M54.26,85.2a9.55,9.55,0,0,1-9.54-9.54,6.44,6.44,0,0,0-2.86-5.33l-2.52-1.7,2.85-1c.16-.06,4-1.46,12.07-1.46a9.54,9.54,0,0,1,0,19.08ZM45.87,69.89a9.46,9.46,0,0,1,2,5.77,6.43,6.43,0,1,0,6.43-6.43A47.47,47.47,0,0,0,45.87,69.89Z"/><path class="cls-1" d="M54.57,77.07a1.42,1.42,0,0,1-1.42-1.41,6.57,6.57,0,0,0-6.57-6.57,1.41,1.41,0,0,1,0-2.82A9.41,9.41,0,0,1,56,75.66,1.41,1.41,0,0,1,54.57,77.07Z"/><path class="cls-2" d="M33.85,52.23c-3.07,0-5.13-.64-6.67-2.08-2.09-1.95-3.11-5.32-3.11-10.3,0-2.15.67-3.55,2.11-4.41s3.71-1.26,7.17-1.26c10.58,0,12,2.11,12,4.18C45.35,43.54,43.86,52.23,33.85,52.23Z"/><path class="cls-2" d="M75,50.15c-1.55,1.44-3.61,2.08-6.68,2.08-10,0-11.5-8.69-11.5-13.87,0-2.07,1.43-4.18,12-4.18,3.46,0,5.73.4,7.17,1.26s2.11,2.26,2.11,4.41C78.08,44.83,77.06,48.2,75,50.15Z"/><path class="cls-4" d="M50,5.29H51V7.4a4.65,4.65,0,0,1,1.93.39c.47.23.71.53.71.9a.81.81,0,0,1-.21.56.67.67,0,0,1-.51.23c-.15,0-.4-.2-.77-.61a1.73,1.73,0,0,0-1.16-.66l-.07,3.64a6.07,6.07,0,0,1,2.34,1.27,2.48,2.48,0,0,1,.68,1.79A2.85,2.85,0,0,1,53.06,17a3.59,3.59,0,0,1-2.19,1v2.11h-.93l0-2.07a5.14,5.14,0,0,1-2.12-.43,1.17,1.17,0,0,1-.76-1.05.9.9,0,0,1,.22-.61.69.69,0,0,1,.52-.26q.3,0,.87.78a1.59,1.59,0,0,0,1.31.77l0-4A5.81,5.81,0,0,1,47.81,12a2.35,2.35,0,0,1-.7-1.73,2.5,2.5,0,0,1,.8-1.88,3.65,3.65,0,0,1,2.14-.94Zm0,2.92a2.07,2.07,0,0,0-1.15.54,1.49,1.49,0,0,0-.41,1.09,1.43,1.43,0,0,0,.37,1,3.34,3.34,0,0,0,1.19.74Zm.8,5.24v3.77a1.93,1.93,0,0,0,1.2-.69,2,2,0,0,0,.45-1.3,1.48,1.48,0,0,0-.39-1A3.49,3.49,0,0,0,50.86,13.45Z"/><path class="cls-4" d="M50.87,20.32h-.93a.2.2,0,0,1-.14-.06.2.2,0,0,1-.06-.14l0-1.88a4.91,4.91,0,0,1-2-.45,1.36,1.36,0,0,1-.87-1.22,1.12,1.12,0,0,1,.28-.74.87.87,0,0,1,.66-.32h0c.28,0,.59.26,1,.86a1.46,1.46,0,0,0,1,.67l0-3.68a5.9,5.9,0,0,1-2.17-1.21,2.56,2.56,0,0,1-.77-1.87,2.71,2.71,0,0,1,.86-2,3.81,3.81,0,0,1,2.08-1l0-2a.16.16,0,0,1,.06-.13A.18.18,0,0,1,50,5.1H51a.17.17,0,0,1,.14.06.16.16,0,0,1,.06.13l0,1.93A4.66,4.66,0,0,1,53,7.61a1.22,1.22,0,0,1,.81,1.08,1,1,0,0,1-.26.69.85.85,0,0,1-.65.3c-.15,0-.38-.08-.91-.68a1.68,1.68,0,0,0-.83-.56l-.06,3.27A5.92,5.92,0,0,1,53.35,13a2.68,2.68,0,0,1,.73,1.92,3.08,3.08,0,0,1-.88,2.2,3.77,3.77,0,0,1-2.13,1.07v1.94A.2.2,0,0,1,50.87,20.32Zm-.73-.39h.54V18a.19.19,0,0,1,.17-.19,3.48,3.48,0,0,0,2.07-1,2.66,2.66,0,0,0,.77-1.93,2.24,2.24,0,0,0-.62-1.65A5.94,5.94,0,0,0,50.81,12a.2.2,0,0,1-.13-.19l.06-3.63a.21.21,0,0,1,.07-.14A.15.15,0,0,1,51,8a1.9,1.9,0,0,1,1.3.72c.46.52.6.55.62.55a.44.44,0,0,0,.36-.17.6.6,0,0,0,.16-.43c0-.29-.19-.53-.59-.73a4.54,4.54,0,0,0-1.86-.36.2.2,0,0,1-.19-.2l0-1.91h-.55l0,2a.2.2,0,0,1-.17.2,3.55,3.55,0,0,0-2,.89,2.31,2.31,0,0,0-.74,1.74A2.11,2.11,0,0,0,48,11.87,5.4,5.4,0,0,0,50.11,13a.2.2,0,0,1,.13.19l0,4a.19.19,0,0,1-.19.19,1.8,1.8,0,0,1-1.47-.86c-.48-.66-.68-.69-.71-.69a.47.47,0,0,0-.37.19.7.7,0,0,0-.18.48,1,1,0,0,0,.66.88,4.93,4.93,0,0,0,2,.4.2.2,0,0,1,.19.2Zm.72-2.52a.2.2,0,0,1-.13,0,.21.21,0,0,1-.07-.15V13.45a.2.2,0,0,1,.27-.18,3.45,3.45,0,0,1,1.33.81,1.63,1.63,0,0,1,.45,1.15,2.16,2.16,0,0,1-1.82,2.18Zm.19-3.67V17a1.73,1.73,0,0,0,.86-.56,1.75,1.75,0,0,0,.41-1.18,1.27,1.27,0,0,0-.34-.89A3,3,0,0,0,51.05,13.74Zm-1-2H50A3.42,3.42,0,0,1,48.72,11a1.62,1.62,0,0,1-.42-1.12,1.69,1.69,0,0,1,.47-1.22A2.17,2.17,0,0,1,50,8a.18.18,0,0,1,.16.05.19.19,0,0,1,.07.14v3.36a.19.19,0,0,1-.09.16A.2.2,0,0,1,50.06,11.76Zm-.19-3.31a1.67,1.67,0,0,0-.82.44,1.31,1.31,0,0,0-.36.95,1.27,1.27,0,0,0,.32.86,2.73,2.73,0,0,0,.86.57Z"/><circle class="cls-4" cx="34.83" cy="42.97" r="5.97"/><path class="cls-1" d="M34.83,49.79A6.82,6.82,0,1,1,41.64,43,6.83,6.83,0,0,1,34.83,49.79Zm0-11.95A5.13,5.13,0,1,0,40,43,5.13,5.13,0,0,0,34.83,37.84Z"/><circle class="cls-1" cx="34.37" cy="39.33" r="2.88"/><circle class="cls-4" cx="67.48" cy="42.97" r="5.97"/><path class="cls-1" d="M67.49,49.79a6.84,6.84,0,0,1-6.44-4.57h0a6.82,6.82,0,1,1,8.67,4.19A6.7,6.7,0,0,1,67.49,49.79Zm-4.85-5.13a5.13,5.13,0,1,0,3.15-6.53,5.14,5.14,0,0,0-3.15,6.53Z"/><circle class="cls-1" cx="67.79" cy="39.22" r="2.94"/><rect class="cls-2" x="37.62" y="42.38" width="27.31" height="27.31" rx="2.89" ry="2.89" transform="translate(-6.03 6.18) rotate(-6.52)"/><path class="cls-1" d="M40,72.54a2.23,2.23,0,0,1-1.4-.49,2.26,2.26,0,0,1-.85-1.52L34.79,45a2.28,2.28,0,0,1,2-2.51l25.55-2.92A2.25,2.25,0,0,1,64,40a2.29,2.29,0,0,1,.84,1.52l2.92,25.54a2.28,2.28,0,0,1-2,2.52L40.23,72.53ZM37.79,45.31l2.77,24.22,24.21-2.76L62,42.55Z"/><circle class="cls-1" cx="45.96" cy="56.55" r="2.97"/><circle class="cls-1" cx="56.19" cy="55.38" r="2.97"/></g></g></svg>