<svg xmlns="http://www.w3.org/2000/svg" viewBox="0 0 22.43 18.47"><defs><style>.cls-1,.cls-2{fill:#fff;}.cls-2{fill-rule:evenodd;}</style></defs><title>twitter</title><g id="Layer_2" data-name="Layer 2"><g id="Layer_1-2" data-name="Layer 1"><path class="cls-1" d="M22.34,2.21a8.87,8.87,0,0,1-2.26.65c.36-.06.9-.72,1.12-1A4.26,4.26,0,0,0,22,.5a.11.11,0,0,0,0-.12.12.12,0,0,0-.12,0,11.76,11.76,0,0,1-2.7,1,.17.17,0,0,1-.18,0,1.81,1.81,0,0,0-.24-.24,4.7,4.7,0,0,0-1.3-.8,4.55,4.55,0,0,0-2-.32,4.72,4.72,0,0,0-1.9.54A4.84,4.84,0,0,0,12,1.8a4.64,4.64,0,0,0-.91,1.83A5,5,0,0,0,11,5.56c0,.11,0,.12-.09.11A14.4,14.4,0,0,1,1.68,1C1.57.84,1.52.84,1.43,1a4.69,4.69,0,0,0,.8,5.54c.18.17.36.34.56.5A4.78,4.78,0,0,1,1,6.51c-.11-.07-.16,0-.17.09a2.39,2.39,0,0,0,0,.53,4.73,4.73,0,0,0,2.92,3.78,2.51,2.51,0,0,0,.59.18,5.15,5.15,0,0,1-1.75.06c-.12,0-.17,0-.12.16a4.93,4.93,0,0,0,3.67,3.08c.17,0,.34,0,.5.07l0,0c-.41.63-1.84,1.09-2.51,1.33a9,9,0,0,1-3.81.48.57.57,0,0,0-.31,0s0,.09.06.14c.26.17.53.33.8.47a12.24,12.24,0,0,0,2.55,1,13.56,13.56,0,0,0,13.18-3.08c2.7-2.68,3.65-6.39,3.65-10.09,0-.15.17-.23.27-.3a9.08,9.08,0,0,0,1.79-1.87.6.6,0,0,0,.11-.36v0C22.43,2.15,22.43,2.17,22.34,2.21Z"/><path class="cls-2" d="M6.66,18.39Z"/><path class="cls-2" d="M6.66,18.39Z"/><path class="cls-2" d="M7.42,18.41s.39,0,0,0C7.42,18.39,7.46,18.41,7.42,18.41Z"/><path class="cls-2" d="M15.35,0a.09.09,0,0,1-.1,0Z"/></g></g></svg>